<svg width="20" height="20" viewBox="0 0 20 20" fill="none" xmlns="http://www.w3.org/2000/svg">
        <g id="Group 43">
        <path id="Vector" d="M8.64865 0C3.89189 0 0 3.89189 0 8.64865C0 13.4054 3.89189 17.2973 8.64865 17.2973C13.4054 17.2973 17.2973 13.4054 17.2973 8.64865C17.2973 3.89189 13.4054 0 8.64865 0ZM5.90703 4.36757C6.75459 4.36757 7.43784 5.05081 7.43784 5.90703C7.43784 6.7546 6.75459 7.43784 5.90703 7.43784C5.05081 7.43784 4.36757 6.7546 4.36757 5.90703C4.36757 5.05081 5.05081 4.36757 5.90703 4.36757ZM11.4335 12.973C10.5859 12.973 9.9027 12.2811 9.9027 11.4335C9.9027 10.5859 10.5859 9.9027 11.4335 9.9027C12.2811 9.9027 12.973 10.5859 12.973 11.4335C12.973 12.2811 12.2811 12.973 11.4335 12.973ZM5.62162 12.9989L4.32432 11.7016L11.7016 4.32433L12.9989 5.62162L5.62162 12.9989Z" fill="#5B5B5B"/>
        <rect id="Rectangle 18" x="13.8086" y="15.4697" width="2.34897" height="6.40628" transform="rotate(-45 13.8086 15.4697)" fill="#5B5B5B"/>
        </g>
      </svg>